<svg width="80" height="80" viewBox="0 0 80 80" fill="none" xmlns="http://www.w3.org/2000/svg">
<path d="M58.4225 59.3018C68.9189 48.8054 68.9189 31.7874 58.4225 21.291C47.9261 10.7946 30.9081 10.7946 20.4117 21.291C9.91527 31.7874 9.91527 48.8054 20.4117 59.3018C30.9081 69.7982 47.9261 69.7982 58.4225 59.3018Z" fill="#BAF4EE"/>
<path opacity="0.73" d="M61.3673 46.7423V55.808C60.3794 57.205 59.2621 58.5059 58.0303 59.6934V46.7423C58.0303 46.6776 56.3941 45.3307 55.1465 44.3118V43.7204L56.6531 43.3319C57.2706 43.1728 57.9234 43.2229 58.5094 43.4743C58.7718 43.5899 59.0398 43.6922 59.3124 43.7808V44.9723C60.56 45.9912 61.35 46.6603 61.3673 46.725V46.7423V46.7423Z" fill="#7FD6CB"/>
<path d="M1.16602 5.81323L9.04888 24.3203L14.8164 20.3745L18.1535 25.2312L18.7578 17.0418L25.7341 12.7895L1.16602 5.81323Z" fill="#FFB031"/>
<path d="M16.0933 19.5025L9.04797 24.3203L14.8155 20.3745L18.1525 25.2312L18.7569 17.0418L7.64062 10.4238L16.0933 19.5025Z" fill="#FF9433"/>
<path d="M18.6102 19.0492L7.64062 10.4238L18.7569 17.0418L18.6102 19.0492Z" fill="#FF7733"/>
<path d="M18.2956 27.5363C18.2352 27.178 18.1575 26.8197 18.0625 26.47L18.6021 26.3232C18.7014 26.6902 18.7834 27.0658 18.8482 27.4414L18.2956 27.5363Z" fill="#00C8B7"/>
<path d="M11.7677 40.107C10.9655 40.0558 10.1904 39.7969 9.51851 39.3558L9.82502 38.8896C10.4153 39.2781 11.0969 39.5058 11.8022 39.5501L11.7677 40.107ZM14.0902 39.6494L13.8442 39.1486C14.4895 38.8217 15.0656 38.3731 15.5407 37.8276L15.9724 38.2032C15.4463 38.8043 14.8066 39.2958 14.0902 39.6494V39.6494ZM7.96007 37.5686C7.64339 36.9313 7.47793 36.2296 7.47656 35.518C7.47656 35.4619 7.47656 35.4057 7.47656 35.3496V35.2287L8.03777 35.2676V35.3712V35.518C8.04456 36.1387 8.19217 36.7498 8.46948 37.3052L7.96007 37.5686ZM29.6185 37.4434V36.8821C30.3481 36.8821 31.0949 36.8476 31.8461 36.7915L31.8893 37.3527C31.1252 37.4088 30.361 37.439 29.6185 37.4434ZM27.3478 37.37L26.9895 37.3398C26.3031 37.2836 25.6944 37.2059 25.0857 37.1023L25.1806 36.5497C25.7591 36.6533 26.3678 36.7267 27.0369 36.7829L27.3866 36.8088L27.3478 37.37ZM34.1427 37.1153L34.0694 36.5584C34.7903 36.4591 35.5328 36.3382 36.2754 36.1957L36.379 36.744C35.6278 36.8908 34.8723 37.016 34.1427 37.1153V37.1153ZM22.8797 36.5497C22.2441 36.3354 21.6298 36.0622 21.0449 35.7338L20.7816 35.5827L21.0536 35.0863L21.2996 35.2287C21.8516 35.5362 22.4294 35.7948 23.0264 36.0015L22.8797 36.5497ZM17.2675 36.3253L16.784 36.0446C17.1469 35.4079 17.4531 34.7405 17.6992 34.0502L18.2259 34.2401C17.9673 34.9616 17.6466 35.6592 17.2675 36.3253V36.3253ZM38.5893 36.2605L38.4554 35.7166C39.1591 35.5482 39.8844 35.3539 40.614 35.1467L40.7694 35.682C40.0355 35.8979 39.2843 36.0921 38.5936 36.2605H38.5893ZM42.9408 35.0215L42.7681 34.4905C43.4761 34.2617 44.1884 34.02 44.8921 33.7696L45.0777 34.2963C44.3741 34.5466 43.6618 34.7927 42.9451 35.0215H42.9408ZM18.8951 34.2833C18.3642 33.8818 17.8075 33.5155 17.2287 33.1868L17.0431 33.0875L17.2978 32.591L17.4963 32.699C18.0964 33.0389 18.6733 33.4181 19.2232 33.8343L18.8951 34.2833ZM8.82779 33.4199L8.43926 33.0227C9.02288 32.4886 9.73072 32.1087 10.4985 31.9176L10.6884 32.4443C9.99659 32.621 9.35806 32.9633 8.82779 33.4415V33.4199ZM14.9968 32.3277C14.3606 32.1849 13.7105 32.1125 13.0585 32.1119H12.8297V31.5506C13.597 31.542 14.3625 31.6275 15.109 31.8053L14.9968 32.3277ZM18.8303 31.9996L18.2777 31.9003C18.4063 31.1763 18.4727 30.4426 18.4763 29.7073H19.0375C19.0347 30.4831 18.9653 31.2572 18.8303 32.0212V31.9996Z" fill="#00C8B7"/>
<path d="M47.224 33.507L47.0254 32.9847L48.0701 32.5789L48.273 33.1012C47.919 33.2394 47.578 33.3602 47.224 33.507Z" fill="#00C8B7"/>
<path d="M64.8505 47.1742C64.7113 47.1727 64.5774 47.12 64.4747 47.026C64.3719 46.932 64.3075 46.8034 64.2936 46.6648C64.2865 46.5916 64.294 46.5177 64.3155 46.4474C64.3371 46.3771 64.3724 46.3118 64.4193 46.2552C64.4663 46.1986 64.524 46.1519 64.5891 46.1177C64.6542 46.0835 64.7255 46.0626 64.7987 46.0561C68.1955 45.7201 71.3331 44.091 73.5622 41.5059C73.6088 41.4446 73.6675 41.3935 73.7347 41.3559C73.8019 41.3182 73.8761 41.2948 73.9528 41.287C74.0294 41.2793 74.1068 41.2874 74.1802 41.3109C74.2535 41.3343 74.3213 41.3727 74.3792 41.4234C74.4371 41.4742 74.4839 41.5364 74.5168 41.606C74.5496 41.6757 74.5678 41.7514 74.5701 41.8284C74.5724 41.9054 74.5589 41.982 74.5303 42.0535C74.5018 42.1251 74.4588 42.19 74.4041 42.2442C71.9879 45.0443 68.5874 46.808 64.9067 47.1699L64.8505 47.1742Z" fill="#00C8B7"/>
<path d="M58.03 46.7422L38.5257 58.26L19.0215 46.7422C19.0215 46.6688 20.1137 45.7709 21.7585 44.4369L21.8016 44.3981C27.1979 40.0077 38.5257 31.0542 38.5257 31.0542C38.5257 31.0542 49.8622 40.0077 55.2585 44.3808C56.9248 45.7364 58.0214 46.6516 58.0386 46.725C58.0364 46.731 58.0335 46.7368 58.03 46.7422Z" fill="#7A4C08"/>
<path d="M46.5458 21.5308H25.5004C24.6337 21.5308 23.8025 21.8751 23.1896 22.4879C22.5767 23.1008 22.2324 23.932 22.2324 24.7987V56.6151C22.2324 57.4818 22.5767 58.3131 23.1896 58.9259C23.8025 59.5388 24.6337 59.8831 25.5004 59.8831H51.8687C52.7354 59.8831 53.5667 59.5388 54.1795 58.9259C54.7924 58.3131 55.1367 57.4818 55.1367 56.6151V30.1216L46.5458 21.5308Z" fill="white"/>
<path d="M46.5469 26.8536C46.5469 27.7204 46.8912 28.5516 47.504 29.1644C48.1169 29.7773 48.9481 30.1216 49.8149 30.1216H55.1377L46.5469 21.5308V26.8536Z" fill="#E6E8E8"/>
<path d="M35.6334 26.9058H28.3765C27.7328 26.9058 27.2109 27.4276 27.2109 28.0714V35.3283C27.2109 35.972 27.7328 36.4939 28.3765 36.4939H35.6334C36.2772 36.4939 36.799 35.972 36.799 35.3283V28.0714C36.799 27.4276 36.2772 26.9058 35.6334 26.9058Z" fill="#82EBE3"/>
<path d="M45.5786 39.1614H28.1594C27.911 39.1614 27.6727 39.2601 27.497 39.4358C27.3214 39.6114 27.2227 39.8497 27.2227 40.0982V40.0982C27.2227 40.3466 27.3214 40.5849 27.497 40.7606C27.6727 40.9363 27.911 41.035 28.1594 41.035H45.5786C45.7016 41.035 45.8234 41.0107 45.9371 40.9637C46.0508 40.9166 46.154 40.8476 46.241 40.7606C46.328 40.6736 46.397 40.5703 46.4441 40.4567C46.4912 40.343 46.5154 40.2212 46.5154 40.0982C46.5154 39.9751 46.4912 39.8533 46.4441 39.7397C46.397 39.626 46.328 39.5227 46.241 39.4358C46.154 39.3488 46.0508 39.2798 45.9371 39.2327C45.8234 39.1856 45.7016 39.1614 45.5786 39.1614V39.1614Z" fill="#D9DBDB"/>
<path d="M45.5786 43.8323H28.1594C28.0364 43.8323 27.9146 43.8565 27.801 43.9036C27.6873 43.9507 27.584 44.0197 27.497 44.1067C27.41 44.1936 27.341 44.2969 27.294 44.4106C27.2469 44.5242 27.2227 44.646 27.2227 44.7691C27.2227 45.0179 27.3212 45.2566 27.4968 45.433C27.6723 45.6094 27.9106 45.709 28.1594 45.7102H45.5786C45.8275 45.709 46.0657 45.6094 46.2413 45.433C46.4168 45.2566 46.5154 45.0179 46.5154 44.7691C46.5154 44.646 46.4912 44.5242 46.4441 44.4106C46.397 44.2969 46.328 44.1936 46.241 44.1067C46.154 44.0197 46.0508 43.9507 45.9371 43.9036C45.8234 43.8565 45.7016 43.8323 45.5786 43.8323V43.8323Z" fill="#D9DBDB"/>
<path d="M37.6706 48.3657H28.1731C27.9243 48.3669 27.686 48.4665 27.5104 48.6429C27.3349 48.8193 27.2363 49.058 27.2363 49.3068C27.2363 49.5553 27.335 49.7936 27.5107 49.9692C27.6864 50.1449 27.9247 50.2436 28.1731 50.2436H37.6706C37.919 50.2436 38.1573 50.1449 38.333 49.9692C38.5086 49.7936 38.6073 49.5553 38.6073 49.3068C38.6073 49.058 38.5088 48.8193 38.3332 48.6429C38.1577 48.4665 37.9194 48.3669 37.6706 48.3657Z" fill="#D9DBDB"/>
<path d="M58.03 46.7429V65.4572C58.0277 66.0869 57.7762 66.6902 57.3305 67.1351C56.8848 67.58 56.2811 67.8304 55.6513 67.8315H21.3915C20.7626 67.8304 20.1597 67.5797 19.7154 67.1346C19.271 66.6894 19.0215 66.0861 19.0215 65.4572V46.7429L38.5257 58.2434L58.03 46.7429Z" fill="#FFB031"/>
<path d="M57.3696 67.1015L44.8157 54.5476L38.5258 58.2559L32.2316 54.5476L19.6777 67.1015C19.8996 67.3367 20.1672 67.5239 20.4642 67.6516C20.7612 67.7793 21.0812 67.8448 21.4045 67.844H55.6644C55.984 67.8416 56.2998 67.7746 56.5928 67.647C56.8859 67.5194 57.1501 67.3339 57.3696 67.1015V67.1015Z" fill="#FF9433"/>
<path d="M61.9704 21.0695C59.2342 21.357 56.6852 22.594 54.7663 24.5657C52.8475 26.5374 51.6801 29.1191 51.4671 31.8621C51.2635 34.5388 51.9926 37.2036 53.5306 39.4039C53.7988 39.7971 53.9642 40.2512 54.0117 40.7248C54.0592 41.1984 53.9873 41.6763 53.8026 42.115L52.8744 44.3425L56.6604 43.3626C57.2763 43.2015 57.9284 43.2517 58.5124 43.505C60.1559 44.2141 61.9399 44.5371 63.7276 44.4495C65.5153 44.3618 67.2591 43.8657 68.8253 42.9993C70.3914 42.1328 71.7383 40.9191 72.7624 39.4512C73.7866 37.9834 74.4608 36.3003 74.7334 34.5314C75.0059 32.7624 74.8696 30.9545 74.3348 29.2464C73.8 27.5383 72.881 25.9755 71.6483 24.6778C70.4156 23.3801 68.902 22.3821 67.2236 21.7604C65.5452 21.1386 63.7467 20.9097 61.966 21.0911L61.9704 21.0695Z" fill="#00C8B7"/>
<path d="M63.4604 38.6525L64.1036 38.005C64.1036 38.005 63.5942 36.8005 65.7398 34.7672C67.0133 33.5584 67.2982 32.3885 67.1946 31.4301C67.1073 30.6818 66.77 29.9847 66.2372 29.452C65.7044 28.9192 65.0074 28.5819 64.2591 28.4946C63.305 28.391 62.1308 28.6759 60.922 29.9537C58.8887 32.1122 57.6842 31.5856 57.6842 31.5856L57.041 32.2288L63.4604 38.6525Z" fill="white"/>
<path d="M58.4748 34.7151C58.221 35.0568 58.0986 35.4784 58.1298 35.9029C58.161 36.3274 58.3437 36.7265 58.6447 37.0275C58.9456 37.3285 59.3448 37.5112 59.7693 37.5424C60.1938 37.5736 60.6153 37.4511 60.9571 37.1974L58.4748 34.7151Z" fill="white"/>
<path d="M67.6307 29.2758L67.2292 29.6773C66.914 29.1792 66.4905 28.7587 65.9902 28.4469L66.396 28.0411C66.4771 27.96 66.5733 27.8957 66.6793 27.8519C66.7852 27.808 66.8987 27.7854 67.0134 27.7854C67.128 27.7854 67.2415 27.808 67.3475 27.8519C67.4534 27.8957 67.5496 27.96 67.6307 28.0411C67.7118 28.1222 67.7761 28.2184 67.82 28.3243C67.8638 28.4303 67.8864 28.5438 67.8864 28.6584C67.8864 28.7731 67.8638 28.8866 67.82 28.9925C67.7761 29.0985 67.7118 29.1947 67.6307 29.2758Z" fill="white"/>
<path d="M62.8393 21.022C64.3302 21.4705 65.6974 22.257 66.8346 23.3202C67.9719 24.3834 68.8485 25.6947 69.3962 27.152C69.9439 28.6093 70.148 30.1733 69.9925 31.7224C69.8371 33.2714 69.3263 34.7637 68.4999 36.0831C67.6736 37.4025 66.5539 38.5135 65.2281 39.3295C63.9023 40.1456 62.406 40.6447 60.8558 40.7881C59.3056 40.9314 57.7432 40.7152 56.2902 40.1561C54.8372 39.597 53.5328 38.7102 52.4785 37.5648C52.7735 38.2083 53.1261 38.8238 53.5319 39.4038C53.8 39.797 53.9654 40.2511 54.0129 40.7247C54.0604 41.1983 53.9886 41.6762 53.8038 42.1149L52.8757 44.3425L56.6617 43.3625C57.2776 43.2014 57.9297 43.2516 58.5137 43.505C60.1243 44.208 61.8725 44.5397 63.6287 44.4756C65.3849 44.4114 67.1042 43.953 68.6592 43.1343C70.2142 42.3156 71.5652 41.1576 72.6119 39.746C73.6587 38.3344 74.3746 36.7054 74.7065 34.9796C75.0383 33.2539 74.9777 31.4756 74.5292 29.7764C74.0806 28.0772 73.2555 26.5007 72.1151 25.1637C70.9746 23.8266 69.548 22.7632 67.9409 22.0523C66.3337 21.3413 64.5872 21.001 62.8307 21.0565L62.8393 21.022Z" fill="#08B29D"/>
<path d="M1.82991 11.3045L4.3899 17.1713C4.45209 17.315 4.45475 17.4775 4.39729 17.6232C4.33983 17.7689 4.22695 17.8858 4.08339 17.9484L3.99274 17.9872C3.92139 18.0185 3.84454 18.0352 3.76666 18.0365C3.68878 18.0377 3.61142 18.0235 3.5391 17.9946C3.46678 17.9656 3.40094 17.9226 3.34541 17.868C3.28989 17.8134 3.24578 17.7482 3.21567 17.6764L0.746342 11.775C0.715828 11.7015 0.700473 11.6226 0.701196 11.543C0.70192 11.4634 0.718707 11.3847 0.750553 11.3118C0.782399 11.2388 0.828647 11.173 0.886525 11.1183C0.944404 11.0637 1.01272 11.0213 1.08739 10.9937V10.9937C1.22738 10.94 1.38265 10.9424 1.52093 11.0003C1.65922 11.0582 1.76988 11.1671 1.82991 11.3045Z" fill="#FFB031"/>
<path d="M11.8548 52.6135C11.4833 52.6135 11.1201 52.7235 10.8109 52.9296C10.5018 53.1356 10.2605 53.4286 10.1176 53.7715C9.97461 54.1144 9.93634 54.492 10.0076 54.8566C10.0788 55.2213 10.2564 55.5567 10.5179 55.8206C10.7794 56.0845 11.1132 56.2651 11.4771 56.3397C11.8411 56.4142 12.219 56.3794 12.5632 56.2396C12.9074 56.0998 13.2026 55.8612 13.4114 55.554C13.6203 55.2467 13.7336 54.8845 13.737 54.513C13.7393 54.2644 13.6923 54.0178 13.5987 53.7874C13.5052 53.5571 13.3669 53.3475 13.1919 53.1709C13.0169 52.9943 12.8086 52.8541 12.5791 52.7584C12.3496 52.6628 12.1034 52.6135 11.8548 52.6135ZM11.8548 55.2555C11.7038 55.2555 11.5562 55.2105 11.4309 55.1262C11.3056 55.0419 11.2083 54.9222 11.1513 54.7824C11.0944 54.6425 11.0804 54.4889 11.1111 54.3411C11.1419 54.1932 11.216 54.0579 11.3239 53.9524C11.4319 53.8468 11.5689 53.7758 11.7174 53.7485C11.8659 53.7212 12.0192 53.7387 12.1577 53.7989C12.2962 53.859 12.4136 53.9591 12.495 54.0863C12.5764 54.2135 12.618 54.3621 12.6146 54.513C12.6101 54.7115 12.528 54.9004 12.386 55.0391C12.244 55.1779 12.0533 55.2556 11.8548 55.2555V55.2555Z" fill="#BAF4EE"/>
<path d="M62.2557 60.2251C61.8832 60.2242 61.5189 60.3339 61.2088 60.5402C60.8987 60.7465 60.6568 61.0402 60.5137 61.384C60.3705 61.7279 60.3326 62.1065 60.4048 62.4719C60.4769 62.8373 60.6558 63.1731 60.9189 63.4367C61.182 63.7004 61.5173 63.8801 61.8826 63.9531C62.2478 64.026 62.6265 63.989 62.9707 63.8467C63.3148 63.7043 63.6091 63.4631 63.8161 63.1535C64.0231 62.8439 64.1336 62.4798 64.1336 62.1073C64.1336 61.6089 63.9359 61.1308 63.5838 60.7779C63.2318 60.4251 62.7541 60.2262 62.2557 60.2251ZM62.2557 62.8671C62.1042 62.868 61.9559 62.8238 61.8295 62.7401C61.7032 62.6565 61.6046 62.5372 61.5463 62.3974C61.4879 62.2576 61.4724 62.1036 61.5017 61.955C61.5311 61.8064 61.6039 61.6698 61.7111 61.5627C61.8182 61.4556 61.9547 61.3827 62.1034 61.3534C62.252 61.324 62.406 61.3395 62.5458 61.3979C62.6856 61.4563 62.8049 61.5549 62.8885 61.6812C62.9721 61.8075 63.0163 61.9558 63.0155 62.1073C63.0155 62.3088 62.9354 62.5021 62.7929 62.6446C62.6504 62.7871 62.4572 62.8671 62.2557 62.8671V62.8671Z" fill="#BAF4EE"/>
<path d="M77.6415 31.0107C77.3562 31.0099 77.077 31.0937 76.8393 31.2516C76.6016 31.4096 76.4161 31.6345 76.3063 31.8978C76.1965 32.1612 76.1673 32.4513 76.2225 32.7313C76.2776 33.0113 76.4146 33.2686 76.6161 33.4707C76.8176 33.6727 77.0745 33.8105 77.3543 33.8665C77.6341 33.9225 77.9243 33.8942 78.188 33.7852C78.4517 33.6762 78.6772 33.4914 78.8358 33.2541C78.9944 33.0169 79.0791 32.738 79.0791 32.4526C79.078 32.0713 78.9263 31.7059 78.657 31.4358C78.3878 31.1658 78.0228 31.013 77.6415 31.0107V31.0107ZM77.6415 33.0354C77.5263 33.0354 77.4136 33.0012 77.3177 32.9372C77.2219 32.8732 77.1472 32.7822 77.1031 32.6757C77.059 32.5692 77.0474 32.452 77.0699 32.3389C77.0924 32.2259 77.1479 32.122 77.2294 32.0405C77.3109 31.959 77.4148 31.9035 77.5278 31.881C77.6409 31.8585 77.7581 31.8701 77.8645 31.9142C77.971 31.9583 78.0621 32.033 78.1261 32.1288C78.1901 32.2247 78.2243 32.3374 78.2243 32.4526C78.2249 32.5293 78.2102 32.6054 78.1811 32.6763C78.152 32.7473 78.1091 32.8118 78.0549 32.866C78.0007 32.9202 77.9362 32.9632 77.8652 32.9922C77.7943 33.0213 77.7182 33.036 77.6415 33.0354V33.0354Z" fill="#BAF4EE"/>
<path d="M52.2837 7.97607C51.9823 7.97607 51.6876 8.06545 51.437 8.2329C51.1864 8.40035 50.9911 8.63835 50.8758 8.91681C50.7604 9.19526 50.7302 9.50167 50.789 9.79728C50.8478 10.0929 50.993 10.3644 51.2061 10.5775C51.4192 10.7907 51.6908 10.9358 51.9864 10.9946C52.282 11.0534 52.5884 11.0232 52.8668 10.9079C53.1453 10.7925 53.3833 10.5972 53.5508 10.3466C53.7182 10.096 53.8076 9.80138 53.8076 9.49998C53.8076 9.09581 53.647 8.7082 53.3612 8.42242C53.0754 8.13663 52.6878 7.97607 52.2837 7.97607V7.97607ZM52.2837 10.1346C52.1616 10.1346 52.0422 10.0984 51.9407 10.0305C51.8392 9.96271 51.7601 9.86629 51.7133 9.75349C51.6666 9.64069 51.6544 9.51656 51.6782 9.39681C51.702 9.27706 51.7608 9.16706 51.8472 9.08073C51.9335 8.99439 52.0435 8.9356 52.1632 8.91178C52.283 8.88796 52.4071 8.90018 52.5199 8.94691C52.6327 8.99363 52.7291 9.07276 52.797 9.17428C52.8648 9.2758 52.901 9.39515 52.901 9.51725C52.8965 9.67796 52.8295 9.83058 52.7142 9.94265C52.5989 10.0547 52.4444 10.1174 52.2837 10.1173V10.1346Z" fill="#BAF4EE"/>
<path d="M3.57817 43.4526C3.26141 43.4526 2.95175 43.5466 2.68837 43.7226C2.42498 43.8985 2.2197 44.1487 2.09848 44.4413C1.97726 44.734 1.94554 45.056 2.00734 45.3667C2.06914 45.6774 2.22167 45.9628 2.44566 46.1868C2.66965 46.4107 2.95503 46.5633 3.26572 46.6251C3.5764 46.6869 3.89843 46.6552 4.19109 46.5339C4.48374 46.4127 4.73388 46.2074 4.90987 45.9441C5.08585 45.6807 5.17979 45.371 5.17979 45.0542C5.17979 44.6295 5.01105 44.2221 4.71069 43.9217C4.41032 43.6214 4.00295 43.4526 3.57817 43.4526Z" fill="#BAF4EE"/>
<path d="M67.8082 48.7542C67.5774 48.7542 67.3519 48.8226 67.1601 48.9509C66.9684 49.0792 66.819 49.2615 66.7309 49.4747C66.6428 49.6879 66.62 49.9225 66.6653 50.1487C66.7106 50.375 66.8221 50.5826 66.9855 50.7455C67.1489 50.9083 67.357 51.019 67.5834 51.0635C67.8098 51.108 68.0443 51.0843 68.2572 50.9954C68.4701 50.9065 68.6518 50.7564 68.7794 50.5642C68.907 50.3719 68.9746 50.1462 68.9737 49.9154C68.9737 49.7626 68.9436 49.6112 68.8849 49.47C68.8263 49.3289 68.7404 49.2006 68.6321 49.0928C68.5238 48.9849 68.3953 48.8994 68.2539 48.8413C68.1125 48.7832 67.961 48.7536 67.8082 48.7542V48.7542Z" fill="#BAF4EE"/>
<path d="M29.2478 8.45508C28.9114 8.45508 28.5825 8.55483 28.3028 8.74173C28.0231 8.92863 27.8051 9.19427 27.6763 9.50507C27.5476 9.81587 27.5139 10.1579 27.5796 10.4878C27.6452 10.8178 27.8072 11.1208 28.0451 11.3587C28.2829 11.5966 28.586 11.7586 28.916 11.8242C29.2459 11.8898 29.5879 11.8561 29.8987 11.7274C30.2095 11.5987 30.4751 11.3807 30.662 11.101C30.8489 10.8212 30.9487 10.4924 30.9487 10.156C30.9475 9.70522 30.768 9.27325 30.4492 8.95452C30.1305 8.63579 29.6985 8.45622 29.2478 8.45508V8.45508Z" fill="#BAF4EE"/>
<path d="M38.362 70.0979C38.1175 70.0979 37.8784 70.1703 37.675 70.3058C37.4715 70.4414 37.3127 70.6342 37.2186 70.8598C37.1244 71.0854 37.0992 71.3339 37.1459 71.5739C37.1927 71.8139 37.3094 72.0346 37.4814 72.2084C37.6534 72.3822 37.8729 72.5012 38.1124 72.5505C38.3519 72.5997 38.6006 72.577 38.8272 72.4852C39.0538 72.3934 39.2482 72.2367 39.3859 72.0346C39.5236 71.8326 39.5984 71.5943 39.6009 71.3498C39.6021 71.1862 39.5709 71.024 39.5092 70.8724C39.4475 70.7208 39.3565 70.5829 39.2414 70.4666C39.1263 70.3503 38.9893 70.2579 38.8384 70.1946C38.6875 70.1313 38.5256 70.0985 38.362 70.0979V70.0979Z" fill="#BAF4EE"/>
<path d="M62.363 15.0208C62.0753 15.0208 61.794 15.1061 61.5548 15.2659C61.3155 15.4258 61.1291 15.653 61.0189 15.9188C60.9088 16.1847 60.88 16.4772 60.9362 16.7594C60.9923 17.0416 61.1309 17.3008 61.3343 17.5043C61.5378 17.7078 61.797 17.8463 62.0792 17.9025C62.3614 17.9586 62.6539 17.9298 62.9198 17.8197C63.1856 17.7096 63.4128 17.5231 63.5727 17.2838C63.7325 17.0446 63.8179 16.7633 63.8179 16.4756C63.8179 16.0897 63.6646 15.7197 63.3918 15.4469C63.1189 15.174 62.7489 15.0208 62.363 15.0208Z" fill="#BAF4EE"/>
<path d="M10.8093 27.9932C11.2671 27.9932 11.6382 27.6221 11.6382 27.1643C11.6382 26.7065 11.2671 26.3354 10.8093 26.3354C10.3516 26.3354 9.98047 26.7065 9.98047 27.1643C9.98047 27.6221 10.3516 27.9932 10.8093 27.9932Z" fill="#BAF4EE"/>
<path d="M78.1382 23.7542C77.8578 23.755 77.5839 23.8391 77.3513 23.9958C77.1188 24.1525 76.938 24.3747 76.8319 24.6343C76.7257 24.8939 76.6991 25.1791 76.7553 25.4538C76.8115 25.7285 76.9479 25.9804 77.1474 26.1775C77.3469 26.3746 77.6005 26.508 77.8759 26.5608C78.1513 26.6136 78.4361 26.5834 78.6944 26.4742C78.9526 26.3649 79.1726 26.1814 79.3265 25.9469C79.4803 25.7124 79.561 25.4376 79.5585 25.1572C79.555 24.7831 79.4038 24.4257 79.1377 24.1628C78.8715 23.8999 78.5122 23.753 78.1382 23.7542V23.7542Z" fill="#BAF4EE"/>
<path d="M2.78507 33.0408C3.28337 33.0408 3.68732 32.6369 3.68732 32.1386C3.68732 31.6403 3.28337 31.2363 2.78507 31.2363C2.28677 31.2363 1.88281 31.6403 1.88281 32.1386C1.88281 32.6369 2.28677 33.0408 2.78507 33.0408Z" fill="#BAF4EE"/>
<path d="M40.696 5.43287L41.2659 4.86734C41.359 4.77215 41.4111 4.64431 41.4111 4.51118C41.4111 4.37805 41.359 4.25021 41.2659 4.15503C41.17 4.06168 41.0414 4.00944 40.9076 4.00944C40.7737 4.00944 40.6452 4.06168 40.5493 4.15503L39.9837 4.71624L39.4182 4.15071C39.3223 4.05736 39.1937 4.00513 39.0599 4.00513C38.9261 4.00513 38.7975 4.05736 38.7016 4.15071C38.6085 4.2459 38.5564 4.37374 38.5564 4.50687C38.5564 4.64 38.6085 4.76784 38.7016 4.86302L39.2844 5.43287L38.7016 5.9984C38.6071 6.09343 38.5543 6.22209 38.5547 6.35608C38.5551 6.49006 38.6087 6.6184 38.7037 6.71286C38.7988 6.80732 38.9274 6.86016 39.0614 6.85975C39.1954 6.85935 39.3237 6.80573 39.4182 6.7107L39.9837 6.16244L40.5493 6.72797C40.6437 6.823 40.7721 6.87662 40.906 6.87702C41.04 6.87743 41.1687 6.82459 41.2637 6.73013C41.3588 6.63567 41.4124 6.50733 41.4128 6.37334C41.4132 6.23935 41.3603 6.11069 41.2659 6.01566L40.696 5.43287Z" fill="#BAF4EE"/>
<path d="M2.15862 22.5676L2.72415 21.9978C2.77127 21.9512 2.80868 21.8958 2.83421 21.8346C2.85974 21.7735 2.87289 21.7079 2.87289 21.6416C2.87289 21.5754 2.85974 21.5098 2.83421 21.4487C2.80868 21.3875 2.77127 21.3321 2.72415 21.2855C2.62897 21.1924 2.50113 21.1403 2.368 21.1403C2.23487 21.1403 2.10703 21.1924 2.01184 21.2855L1.42905 21.8338L0.863518 21.2725C0.767606 21.1792 0.639048 21.127 0.505206 21.127C0.371364 21.127 0.242806 21.1792 0.146894 21.2725C0.0538158 21.3677 0.00169858 21.4956 0.00169858 21.6287C0.00169858 21.7618 0.0538158 21.8897 0.146894 21.9848L0.712422 22.5676L0.146894 23.1159C0.0524359 23.2109 -0.000402492 23.3396 2.30887e-06 23.4736C0.00040711 23.6076 0.054022 23.7359 0.149052 23.8304C0.244083 23.9248 0.372744 23.9777 0.506732 23.9773C0.64072 23.9769 0.76906 23.9232 0.863518 23.8282L1.42905 23.2627L1.99458 23.8282C2.09116 23.9113 2.21559 23.9549 2.34292 23.9501C2.47026 23.9453 2.59108 23.8926 2.68118 23.8025C2.77128 23.7124 2.824 23.5916 2.82877 23.4643C2.83353 23.3369 2.79 23.2125 2.70688 23.1159L2.15862 22.5676Z" fill="#BAF4EE"/>
<path d="M68.9481 57.1332L69.4273 56.654C69.4767 56.6169 69.5177 56.5696 69.5473 56.5153C69.5769 56.461 69.5945 56.401 69.5989 56.3393C69.6032 56.2776 69.5943 56.2156 69.5727 56.1577C69.5511 56.0998 69.5172 56.0471 69.4735 56.0034C69.4298 55.9597 69.3771 55.9258 69.3192 55.9042C69.2612 55.8826 69.1993 55.8737 69.1376 55.878C69.0759 55.8824 69.0159 55.9 68.9616 55.9296C68.9073 55.9592 68.86 56.0002 68.8229 56.0496L68.3437 56.5288L67.8645 56.0496C67.7838 55.9705 67.6753 55.9262 67.5623 55.9262C67.4493 55.9262 67.3408 55.9705 67.2601 56.0496C67.181 56.1303 67.1367 56.2388 67.1367 56.3518C67.1367 56.4648 67.181 56.5733 67.2601 56.654L67.7393 57.1332L67.2601 57.6124C67.1939 57.6951 67.1605 57.7994 67.1661 57.9052C67.1718 58.011 67.2162 58.1111 67.2909 58.1863C67.3655 58.2615 67.4653 58.3066 67.571 58.313C67.6768 58.3194 67.7813 58.2867 67.8645 58.2211L68.3437 57.7376L68.8229 58.2211C68.9036 58.3002 69.0121 58.3445 69.1251 58.3445C69.2381 58.3445 69.3466 58.3002 69.4273 58.2211C69.5077 58.1402 69.5528 58.0308 69.5528 57.9167C69.5528 57.8027 69.5077 57.6933 69.4273 57.6124L68.9481 57.1332Z" fill="#BAF4EE"/>
</svg>
